<svg width="20" height="20" viewBox="0 0 20 20" fill="none" xmlns="http://www.w3.org/2000/svg">
<path d="M3.52565 15.314C3.54513 15.3961 3.58103 15.4735 3.6312 15.5414C3.68136 15.6093 3.74474 15.6664 3.81753 15.7092C3.89033 15.752 3.97102 15.7796 4.05477 15.7904C4.13851 15.8012 4.22357 15.7949 4.30483 15.772C8.03055 14.7433 11.9653 14.7429 15.6912 15.7709C15.7725 15.7938 15.8575 15.8 15.9412 15.7893C16.0249 15.7785 16.1056 15.7509 16.1784 15.7081C16.2511 15.6653 16.3145 15.6083 16.3647 15.5404C16.4148 15.4725 16.4507 15.3952 16.4702 15.3131L18.4616 6.85085C18.4882 6.73756 18.4827 6.61908 18.4457 6.50876C18.4086 6.39843 18.3415 6.30064 18.2519 6.22639C18.1623 6.15214 18.0537 6.1044 17.9384 6.08852C17.8231 6.07265 17.7057 6.08929 17.5993 6.13655L13.6475 7.89293C13.5048 7.95636 13.3435 7.96406 13.1954 7.91453C13.0473 7.86501 12.9231 7.76183 12.8473 7.62533L10.5463 3.48358C10.4922 3.38615 10.413 3.30496 10.3169 3.24844C10.2209 3.19192 10.1114 3.16211 9.99997 3.16211C9.88851 3.16211 9.77908 3.19192 9.68302 3.24844C9.58695 3.30496 9.50775 3.38615 9.45362 3.48358L7.15266 7.62533C7.07682 7.76183 6.95263 7.865 6.80454 7.91453C6.65644 7.96406 6.49517 7.95635 6.35247 7.89293L2.40002 6.13629C2.29369 6.08903 2.17628 6.07239 2.061 6.08825C1.94573 6.10411 1.83718 6.15183 1.74756 6.22604C1.65794 6.30025 1.59081 6.39801 1.55374 6.5083C1.51668 6.6186 1.51113 6.73705 1.53774 6.85033L3.52565 15.314Z" stroke="#FF6636" stroke-width="1.5" stroke-linecap="round" stroke-linejoin="round"/>
<path d="M7.5 12.6311C9.16208 12.4563 10.8379 12.4563 12.5 12.6311" stroke="#FF6636" stroke-width="1.5" stroke-linecap="round" stroke-linejoin="round"/>
</svg>
