<svg width="40" height="40" viewBox="0 0 40 40" fill="none" xmlns="http://www.w3.org/2000/svg">
<path opacity="0.2" d="M20.3509 34.9964C23.0934 34.9327 25.7659 34.1183 28.0778 32.6416C30.3897 31.165 32.2524 29.0827 33.4634 26.6213L33.4631 26.6211L24.9809 21.4042C24.8322 21.3127 24.666 21.2534 24.493 21.2301L20.9276 20.7495C20.6599 20.7134 20.3877 20.765 20.1517 20.8966C19.9158 21.0282 19.7288 21.2327 19.6189 21.4795L17.4784 26.2823C17.3789 26.5057 17.347 26.7533 17.3868 26.9946C17.4266 27.2359 17.5363 27.4602 17.7023 27.6397L20.6398 30.817C20.773 30.961 20.8704 31.1344 20.9241 31.3231C20.9779 31.5117 20.9865 31.7104 20.9492 31.903L20.3509 34.9962L20.3509 34.9964Z" fill="#E34444"/>
<path opacity="0.2" d="M16.8167 6.36816C18.9041 5.8801 21.074 5.87713 23.1594 6.35742L24.4065 8.5918C24.434 8.64114 24.444 8.69815 24.4348 8.75391C24.4302 8.78168 24.4217 8.80862 24.4084 8.83301L24.3567 8.89941L20.1516 12.7021L20.1047 12.7354L18.1917 13.791C18.1546 13.8114 18.1128 13.8223 18.0706 13.8223H14.7356L14.5706 13.8291C14.186 13.8574 13.8142 13.984 13.4915 14.1982C13.1687 14.4125 12.9071 14.7055 12.7317 15.0488L12.6624 15.1992L11.6829 17.5244L11.6458 17.5166L11.5862 17.4961C11.5676 17.4868 11.5502 17.4746 11.5344 17.4609C11.5188 17.4474 11.5052 17.4319 11.4934 17.415L11.4641 17.3594L9.66821 12.5674C9.65146 12.5224 9.64854 12.474 9.65845 12.4277L9.67212 12.3828L10.9758 9.29688C12.6644 7.87539 14.6653 6.87118 16.8167 6.36816Z" fill="#E34444" stroke="#E34444" stroke-width="2"/>
<path d="M20 35C28.2843 35 35 28.2843 35 20C35 11.7157 28.2843 5 20 5C11.7157 5 5 11.7157 5 20C5 28.2843 11.7157 35 20 35Z" stroke="#E34444" stroke-width="2" stroke-linecap="round" stroke-linejoin="round"/>
<path d="M33.4631 26.6211L24.9809 21.4042C24.8322 21.3127 24.666 21.2534 24.493 21.2301L20.9276 20.7495C20.6599 20.7134 20.3877 20.765 20.1517 20.8966C19.9158 21.0282 19.7288 21.2327 19.6189 21.4795L17.4784 26.2823C17.3789 26.5057 17.347 26.7533 17.3868 26.9946C17.4266 27.2359 17.5363 27.4602 17.7023 27.6397L20.6398 30.817C20.773 30.961 20.8704 31.1344 20.9241 31.3231C20.9779 31.5117 20.9865 31.7104 20.9492 31.903L20.3509 34.9962" stroke="#E34444" stroke-width="2" stroke-linecap="round" stroke-linejoin="round"/>
<path d="M10.1488 8.6875L8.75131 11.9921C8.6267 12.2868 8.61981 12.618 8.73205 12.9176L10.5275 17.7095C10.601 17.9057 10.7227 18.0803 10.8813 18.2172C11.04 18.3542 11.2305 18.449 11.4354 18.493L14.7838 19.2127C14.9696 19.2526 15.1438 19.3344 15.2933 19.4518C15.4427 19.5692 15.5635 19.7191 15.6463 19.8902L16.2409 21.1186C16.3432 21.33 16.503 21.5083 16.702 21.6331C16.901 21.7578 17.1311 21.824 17.366 21.824H19.4648" stroke="#E34444" stroke-width="2" stroke-linecap="round" stroke-linejoin="round"/>
<path d="M23.8215 5.49219L25.2799 8.10444C25.4178 8.35138 25.4678 8.63779 25.4219 8.91685C25.3759 9.19592 25.2367 9.45116 25.0269 9.64087L20.8221 13.4436C20.7508 13.5081 20.6722 13.5642 20.588 13.6107L18.6752 14.667C18.4902 14.7692 18.2823 14.8228 18.0709 14.8228H14.7357C14.4897 14.8228 14.2492 14.8954 14.0443 15.0314C13.8394 15.1674 13.6792 15.3609 13.5837 15.5876L12.2826 18.6764" stroke="#E34444" stroke-width="1.5" stroke-linecap="round" stroke-linejoin="round"/>
</svg>
